<mxfile host="app.diagrams.net" modified="2021-05-18T06:44:07.104Z" agent="5.0 (Macintosh; Intel Mac OS X 10_15_7) AppleWebKit/537.36 (KHTML, like Gecko) Chrome/90.0.4430.212 Safari/537.36" etag="Ue5HPQ9AXKXLNT0gh7FY" version="14.6.13" type="github">
  <diagram id="HBuWrQhxdSb8chclBW5w" name="Page-1">
    <mxGraphModel dx="1186" dy="687" grid="1" gridSize="10" guides="1" tooltips="1" connect="1" arrows="1" fold="1" page="1" pageScale="1" pageWidth="850" pageHeight="1100" math="0" shadow="0">
      <root>
        <mxCell id="IUIjwN9Ii2n5HUYI_yx7-0" />
        <mxCell id="IUIjwN9Ii2n5HUYI_yx7-1" parent="IUIjwN9Ii2n5HUYI_yx7-0" />
      </root>
    </mxGraphModel>
  </diagram>
</mxfile>
